<?xml version="1.0" encoding="UTF-8" standalone="no"?>
<!-- Created with Inkscape (http://www.inkscape.org/) -->

<svg
   xmlns:dc="http://purl.org/dc/elements/1.1/"
   xmlns:cc="http://creativecommons.org/ns#"
   xmlns:rdf="http://www.w3.org/1999/02/22-rdf-syntax-ns#"
   xmlns:svg="http://www.w3.org/2000/svg"
   xmlns="http://www.w3.org/2000/svg"
   xmlns:sodipodi="http://sodipodi.sourceforge.net/DTD/sodipodi-0.dtd"
   xmlns:inkscape="http://www.inkscape.org/namespaces/inkscape"
   id="svg2"
   version="1.1"
   inkscape:version="0.91 r13725"
   width="1500"
   height="1500"
   viewBox="0 0 1500 1500"
   sodipodi:docname="linkedin.svg">
  <metadata
     id="metadata8">
    <rdf:RDF>
      <cc:Work
         rdf:about="">
        <dc:format>image/svg+xml</dc:format>
        <dc:type
           rdf:resource="http://purl.org/dc/dcmitype/StillImage" />
        <dc:title></dc:title>
      </cc:Work>
    </rdf:RDF>
  </metadata>
  <defs
     id="defs6" />
  <sodipodi:namedview
     pagecolor="#ffffff"
     bordercolor="#666666"
     borderopacity="1"
     objecttolerance="10"
     gridtolerance="10"
     guidetolerance="10"
     inkscape:pageopacity="0"
     inkscape:pageshadow="2"
     inkscape:window-width="1268"
     inkscape:window-height="682"
     id="namedview4"
     showgrid="false"
     inkscape:zoom="0.31466667"
     inkscape:cx="750"
     inkscape:cy="750"
     inkscape:window-x="49"
     inkscape:window-y="24"
     inkscape:window-maximized="0"
     inkscape:current-layer="svg2" />
  <path
     style="fill:#000000"
     d="M 265.45821,1496.5998 C 169.0816,1489.7267 82.186472,1432.388 37.418772,1346.1256 22.866699,1318.0854 13.502594,1288.6195 8.228887,1254.2749 6.6504382,1243.995 6.5383333,1216.3365 6.2273587,760.45716 5.9877737,409.23375 6.1879576,273.78485 6.9613846,263.79909 14.581444,165.41598 72.806132,78.927274 161.18325,34.713237 183.35137,23.62278 206.07287,15.830039 230.37914,10.981287 258.28117,5.4152318 223.35651,5.7641115 752.64718,5.7641115 c 465.81012,0 489.18382,0.079694 500.91942,1.7089456 71.4927,9.9250879 134.0228,44.1621129 179.0611,98.0410829 38.9934,46.64763 60.8766,101.72612 64.7769,163.03873 0.7568,11.89838 0.9587,150.86038 0.7182,494.27163 -0.3136,447.7919 -0.4377,478.4318 -1.9812,489.0827 -5.0493,34.8422 -13.4446,62.1454 -28.0962,91.3738 -26.8939,53.6496 -70.4027,97.1584 -124.0522,124.052 -29.2295,14.6522 -56.5411,23.05 -91.3736,28.0956 -10.664,1.5446 -41.0423,1.6552 -493.81747,1.7968 -265.3499,0.082 -487.35466,-0.1984 -493.34392,-0.6256 z M 467.1514,1161.7135 c -1.1e-4,-60.8039 -0.28391,-216.97431 -0.63064,-347.04529 l -0.63045,-236.49259 -115.89027,0 -115.89028,0 0.60039,345.86158 c 0.33023,190.2239 0.76553,346.3942 0.96731,347.0451 0.29089,0.9386 24.30457,1.1837 115.92052,1.1837 l 115.55363,0 -2.1e-4,-110.5525 z m 344.94525,-99.8998 c 0.28801,-194.48862 0.43517,-211.06295 1.93955,-218.50122 2.32285,-11.4849 4.87529,-18.8942 10.60171,-30.77487 13.97416,-28.99233 35.41934,-50.96538 60.23804,-61.72068 13.53296,-5.86456 23.94317,-8.02408 41.36395,-8.58061 17.6263,-0.5631 28.8795,0.61568 40.41058,4.23295 43.04792,13.50409 64.63932,50.91434 69.55672,120.51615 0.6141,8.69365 0.9734,85.54676 0.9793,209.50918 l 0.01,195.7789 116.7072,-0.2404 116.7078,-0.2405 0,-215.4238 c 0,-227.44007 0.046,-224.71436 -4.3619,-256.47695 -4.2458,-30.59306 -10.9213,-56.9673 -20.7595,-82.02397 -35.6811,-90.87323 -107.309,-144.004 -206.2567,-152.99318 -18.2765,-1.66037 -54.77268,-0.69247 -70.68858,1.87467 -39.80679,6.42066 -72.17523,20.34188 -100.41257,43.18604 -17.00506,13.75721 -37.48744,36.9787 -51.5967,58.49676 l -4.23208,6.45436 -0.57921,-15.45008 c -0.31854,-8.49754 -0.63813,-30.2575 -0.71018,-48.35545 l -0.13109,-32.90538 -117.772,0 -117.77197,0 0.36692,254.95752 c 0.2018,140.22657 0.62615,296.39696 0.94302,347.04516 l 0.57613,92.0877 117.28018,0 117.28016,0 0.31163,-210.4523 z M 371.98642,484.9141 c 13.93458,-2.41652 24.87727,-5.91382 37.04159,-11.83851 40.21415,-19.58649 63.8168,-57.38033 63.80129,-102.16218 -0.007,-19.52873 -3.67704,-35.95357 -11.7688,-52.66657 -6.31983,-13.05315 -11.55446,-20.48638 -21.53743,-30.58325 -29.11122,-29.44346 -77.2394,-41.50104 -125.50094,-31.44185 -39.21522,8.17366 -70.20998,32.58511 -85.09948,67.02431 -5.96565,13.79847 -8.12391,24.247 -8.66827,41.965 -0.37348,12.15562 -0.12226,17.84034 1.10888,25.09333 7.32767,43.16924 36.77223,76.71335 79.1309,90.14817 8.09725,2.56822 21.47337,5.2041 31.72174,6.25107 7.34655,0.75052 31.35238,-0.32965 39.77052,-1.78952 z"
     id="path4138"
     inkscape:connector-curvature="0" />
</svg>
